<svg width="48" height="21" viewBox="0 0 48 21" fill="none" xmlns="http://www.w3.org/2000/svg">
<g clip-path="url(#clip0_8_26)">
<path d="M11.2713 10.5C11.2713 14.8106 13.408 18.622 16.674 20.9317C6.56061 18.1083 0 10.5036 0 10.5036C0 10.5036 6.56061 2.89172 16.6776 0.0682526C13.408 2.37444 11.2749 6.18936 11.2749 10.5H11.2713Z" fill="#CDA5FA"/>
<path d="M48 10.4964C42.1564 16.3589 36.4921 19.5559 31.2256 21C34.549 18.701 36.7287 14.8537 36.7287 10.5C36.7287 6.14625 34.549 2.29901 31.2256 0C36.4921 1.44406 42.1528 4.64112 48 10.4964Z" fill="#CDA5FA"/>
<path d="M24.8192 8.84759C24.8192 9.14574 24.7511 9.37923 24.6113 9.54806C24.4714 9.7169 24.2671 9.79952 23.991 9.79952C23.715 9.79952 23.5142 9.7169 23.378 9.55166C23.2454 9.38642 23.1772 9.15292 23.1772 8.84759V6.31149H24.8192" fill="#CDA5FA"/>
<path d="M28.7556 7.63011V9.91115C28.7556 10.2452 28.6301 10.5649 28.4006 10.8092L24.959 14.502C24.4392 15.0588 23.5573 15.0588 23.0374 14.502L19.5958 10.8092C19.3699 10.5649 19.2409 10.2452 19.2409 9.91115V7.63011C19.2409 6.90448 19.8288 6.31536 20.553 6.31536H21.6859V8.85145C21.6859 9.36514 21.7827 9.7998 21.9763 10.1518C22.1698 10.5075 22.4351 10.7733 22.7793 10.9529C23.1199 11.1289 23.5142 11.2187 23.9624 11.2187C24.4105 11.2187 24.8084 11.1289 25.1634 10.9493C25.5183 10.7697 25.7979 10.5003 26.0022 10.1446C26.2066 9.78902 26.3106 9.35795 26.3106 8.85145V6.31536H27.4434C28.1676 6.31536 28.7591 6.90448 28.7591 7.63011H28.7556Z" fill="#CDA5FA"/>
</g>
<defs>
<clipPath id="clip0_8_26">
<rect width="48" height="21" fill="white"/>
</clipPath>
</defs>
</svg>
